<svg xmlns="http://www.w3.org/2000/svg" width="32" height="32" fill="none" viewBox="0 0 32 32"><path fill="#00a6ed" d="M2 6a4 4 0 0 1 4-4h20a4 4 0 0 1 4 4v20a4 4 0 0 1-4 4H6a4 4 0 0 1-4-4z"/><path fill="#fff" d="M19.576 15.91a3.17 3.17 0 0 0 3.167 3.258 3.1 3.1 0 0 0 1.278-.273.96.96 0 0 1 1.15.307.968.968 0 0 1-.377 1.472 5.108 5.108 0 0 1-7.155-4.883c.102-2.634 2.237-4.782 4.871-4.899a5.1 5.1 0 0 1 2.282.424.97.97 0 0 1 .381 1.474.96.96 0 0 1-1.147.31 3.16 3.16 0 0 0-1.454-.265 3.183 3.183 0 0 0-2.996 3.074m-4.484-4.154a.97.97 0 0 1 1.19-.687.96.96 0 0 1 .678 1.19l-2.118 7.906a.97.97 0 0 1-.704.773l-.015.002-.015.003-.007.002-.082.015-.012.001-.013.002-.064.004h-.09q-.03 0-.064-.005h-.012l-.012-.002-.082-.015-.008-.002-.03-.005a.97.97 0 0 1-.703-.773l-1.182-4.413-1.182 4.413a.97.97 0 0 1-.703.773l-.015.002-.015.003-.008.002-.081.015-.013.001-.012.002-.065.004h-.089q-.03 0-.064-.005h-.013l-.012-.002-.082-.015-.007-.002-.03-.005a.97.97 0 0 1-.704-.773l-2.118-7.907a.971.971 0 0 1 1.876-.502l1.201 4.484 1.202-4.485a.96.96 0 0 1 .419-.567q.001-.003.002-.002a1 1 0 0 1 .08-.045l.003-.001.004-.002a.5.5 0 0 1 .082-.037l.005-.002a1 1 0 0 1 .089-.03h.005l.086-.02h.005l.005-.002.075-.008h.013l.014-.002h.1l.013.001.013.001a.4.4 0 0 1 .08.01h.005l.089.02h.002l.09.03.004.002.085.037.003.002.004.001.08.045q.001.003.002.002a.97.97 0 0 1 .419.568l1.201 4.484z"/></svg>